<svg id="Arrazo_Supremo" data-name="Arrazo Supremo" xmlns="http://www.w3.org/2000/svg" xmlns:xlink="http://www.w3.org/1999/xlink" width="50" height="56" viewBox="0 0 50 56">
  <defs>
    <clipPath id="clip-path">
      <path id="Caminho_20" data-name="Caminho 20" d="M0,0H50V56H0Z" transform="translate(519 490)" fill="#fff" stroke="#707070" stroke-width="1"/>
    </clipPath>
  </defs>
  <g id="Grupo_de_máscara_3" data-name="Grupo de máscara 3" transform="translate(-519 -490)" clip-path="url(#clip-path)">
    <g id="supremo" transform="translate(512.125 486)">
      <g id="g22" transform="translate(8.917 6.616)">
        <path id="path2" d="M26.11-56.719a1.056,1.056,0,0,0-.37.9c0,.675.153.956.637,1.121l.382.14-.331.93c-.675,1.873-1.236,2.765-2.039,3.237-.714.421-1.032.382-1.784-.178-.344-.255-.981-.7-1.427-.981-.752-.484-.79-.535-.714-.917a1.118,1.118,0,0,0-.5-1.313,1.47,1.47,0,0,0-2.255,1.338c0,.459.522.93,1.134,1.032.484.076.51.115.586.612.115.841.319,4.256.319,5.4,0,.79.051,1.07.178,1.121a8.318,8.318,0,0,0,1.822-.459,51.735,51.735,0,0,1,10.87-2.039c3.033-.319,3.058-.331,3.058-.612a13.507,13.507,0,0,0-.688-1.9,39.05,39.05,0,0,1-1.733-5.072,1.1,1.1,0,0,1,.382-.535.906.906,0,0,0,.14-1.363,1.32,1.32,0,0,0-2.115.357c-.268.637-.242.816.2,1.223.37.357.382.382.229.917-.675,2.51-2,2.472-3.746-.14l-.548-.8.255-.433A1.268,1.268,0,0,0,26.11-56.719Zm1.338.421c.421.586.178,1.121-.5,1.121-.714,0-.9-.471-.433-1.07C26.837-56.655,27.193-56.668,27.448-56.3Zm5.785.382c.268.268.166.573-.217.739-.5.2-.828.127-.879-.217C32.074-55.865,32.889-56.26,33.234-55.916Zm-4.8,3.249c.446.484,1.147,1.223,1.542,1.669,1.007,1.134,1.121,1.109,2.013-.7a11.6,11.6,0,0,1,.765-1.427,23.5,23.5,0,0,1,1.657,5.033c0,.306-1.032.548-2.765.675a44.6,44.6,0,0,0-10.9,2.141c-.2.064-.229-.038-.229-.9,0-.522-.064-1.822-.14-2.88a15.083,15.083,0,0,1-.076-2,13.972,13.972,0,0,1,2.752,1.835,6.242,6.242,0,0,0,1.236.8c.242,0,.51-.446,1.274-2.115a18.622,18.622,0,0,1,.956-1.86,4.181,4.181,0,0,1,1.007-1.121A6.228,6.228,0,0,1,28.429-52.666ZM19.8-53.189c.306.306.242.51-.255.892-.37.293-.51.331-.79.229-.726-.255-.382-1.325.421-1.325A.987.987,0,0,1,19.8-53.189Z" transform="translate(-8.917 57.099)"/>
        <path id="path4" d="M37.4-56.183a4.274,4.274,0,0,0-.93.8c-.089.4.28.331,1.083-.191,1.109-.726,1.236-.854,1.045-1.083a.428.428,0,0,0-.229-.178C38.331-56.821,37.9-56.54,37.4-56.183Z" transform="translate(-8.917 57.099)"/>
        <path id="path6" d="M38.968-52.781c-.828.242-1.032.4-.867.65.166.28,2.294-.306,2.294-.637C40.4-53.074,39.975-53.074,38.968-52.781Z" transform="translate(-8.917 57.099)"/>
        <path id="path8" d="M13.214-52.157c-.242.229-.013.433.752.675,1.185.357,1.784.446,1.9.255.153-.242-.076-.37-1.287-.7C13.3-52.284,13.329-52.271,13.214-52.157Z" transform="translate(-8.917 57.099)"/>
        <path id="path10" d="M38.292-49.57c-.14.229.064.37.9.637,1.058.319,1.325.331,1.325.013,0-.191-.191-.306-.879-.51C38.662-49.736,38.407-49.761,38.292-49.57Z" transform="translate(-8.917 57.099)"/>
        <path id="path12" d="M14.845-47.811c-.739.306-1.16.548-1.185.7-.064.344.408.268,1.695-.268.714-.293,1.147-.548,1.147-.663C16.5-48.372,16.031-48.308,14.845-47.811Z" transform="translate(-8.917 57.099)"/>
        <path id="path14" d="M16.553-44.46c-.93.765-1.249,1.262-.816,1.262a9.087,9.087,0,0,0,2.1-1.657.446.446,0,0,0-.178-.242C17.522-45.212,17.292-45.084,16.553-44.46Z" transform="translate(-8.917 57.099)"/>
        <path id="path16" d="M27.716-42.523c-.816.37-.765-.484-.765,12.093v11.469l.421.37a1.368,1.368,0,0,0,2.052-.191c.1-.191.14-3.415.115-11.787L29.5-42.09l-.319-.229A1.467,1.467,0,0,0,27.716-42.523Z" transform="translate(-8.917 57.099)"/>
        <path id="path18" d="M36-42.5a1.944,1.944,0,0,0-.535.408c-.127.166-.166,2.7-.166,11.673v11.456l.37.37a1.4,1.4,0,0,0,1.86.064l.382-.306.038-11.392c.013-7.709-.013-11.481-.1-11.7A1.392,1.392,0,0,0,36-42.5Z" transform="translate(-8.917 57.099)"/>
        <path id="path20" d="M9.417-14.973A1.042,1.042,0,0,0,9-14.591c-.038.1-.076,2.23-.076,4.728-.013,4.192,0,4.562.229,5,.331.637.981.943,2.306,1.058,1.427.127,40.268.127,41.695,0,1.351-.115,1.975-.408,2.332-1.109.255-.471.268-.7.268-4.982v-4.5l-.344-.344a1.038,1.038,0,0,0-1.516-.051c-.217.268-.242.561-.242,3.581,0,1.809-.038,3.377-.076,3.492-.076.191-2.052.2-21.191.2-16.247,0-21.153-.038-21.268-.153a14.36,14.36,0,0,1-.153-3.492c0-2.995-.025-3.364-.217-3.606A1.113,1.113,0,0,0,9.417-14.973Z" transform="translate(-8.917 57.099)"/>
      </g>
      <circle id="path861" cx="0.041" cy="0.041" r="0.041" transform="translate(31.858 12.738)" stroke="#000" stroke-width="0.096"/>
      <path id="path865" d="M20.5,15.942c-.072-1.321-.13-2.589-.129-2.817v-.415l.469.3c.258.163,1.041.716,1.739,1.229,1.656,1.217,1.731,1.251,2.015.9A21.426,21.426,0,0,0,25.679,13.1a11.04,11.04,0,0,1,1.362-2.319l.5-.552.528.554c.291.3.979,1.038,1.53,1.629,1.393,1.495,1.5,1.481,2.4-.306.8-1.595.757-1.578,1.172-.431a27.373,27.373,0,0,1,1.113,3.746c0,.478-.529.62-3.256.877a43.519,43.519,0,0,0-8.545,1.561c-.933.267-1.732.485-1.776.485a18.7,18.7,0,0,1-.209-2.4Zm11.475-3.15c-.014-.132-.165-.106-.213.036-.024.073.015.113.088.088S31.981,12.836,31.976,12.792Z" transform="translate(0)" fill="#d4aa00"/>
      <path id="path867" fill="#fc0"/>
      <path id="path871" d="M20.685,17.661c-.035-.319-.092-1.126-.125-1.794s-.09-1.629-.125-2.135c-.076-1.1-.283-1.149,1.988.468a12.377,12.377,0,0,0,1.832,1.17c.285,0,.46-.256,1.256-1.829a12.855,12.855,0,0,1,1.824-2.967l.241-.213,1.5,1.566c1.239,1.3,1.551,1.566,1.811,1.566a.671.671,0,0,0,.531-.276.7.7,0,0,1,.407-.276c.14,0,.174-.062.128-.236a3.862,3.862,0,0,1,.8-1.751A20.145,20.145,0,0,1,34.2,15.391c0,.461-.442.568-3.81.922A44.6,44.6,0,0,0,22.492,17.8c-.88.244-1.632.443-1.671.443a1.326,1.326,0,0,1-.135-.58Z" transform="translate(0)" fill="#d4aa00"/>
      <path id="path873" d="M20.674,17.661c-.094-.84-.294-4.746-.246-4.794a9.817,9.817,0,0,1,1.244.8c2.7,1.9,2.629,1.861,2.939,1.505a17.447,17.447,0,0,0,.9-1.635,12.83,12.83,0,0,1,1.826-2.968l.242-.214,1.514,1.57c1.65,1.71,1.887,1.842,2.323,1.288a.7.7,0,0,1,.407-.276c.14,0,.174-.062.128-.236a3.832,3.832,0,0,1,.8-1.751A19.741,19.741,0,0,1,34.2,15.4c0,.456-.253.519-3.644.9a46.448,46.448,0,0,0-8.439,1.6c-.663.187-1.244.339-1.29.339s-.113-.261-.148-.58Z" transform="translate(0)" fill="#fc0"/>
      <path id="path875" d="M26.6,8.41c-.333-.134-.323-.547.022-.919.329-.355.429-.362.719-.051a.571.571,0,0,1-.02.912C27.049,8.545,26.958,8.552,26.6,8.41Z" transform="translate(0)" fill="#ffe680"/>
      <path id="path877" d="M32.34,8.5c-.186-.186-.165-.356.069-.568a.571.571,0,0,1,.77-.05q.344.344-.25.591C32.468,8.666,32.5,8.665,32.34,8.5Z" transform="translate(0)" fill="#ffe680"/>
      <path id="path879" fill="#ffe680"/>
      <path id="path881" d="M18.578,11.442c-.244-.244-.216-.521.082-.8a.779.779,0,0,1,1.085-.02l.261.22-.412.388c-.449.422-.745.484-1.015.214Z" transform="translate(0)" fill="#ffe680"/>
    </g>
  </g>
</svg>
