<svg id="Btn_-_Deslizar_entra_as_poc_right" data-name="Btn - Deslizar entra as poc right" xmlns="http://www.w3.org/2000/svg" width="20" height="30" viewBox="0 0 20 30">
  <g id="Btn_-_Deslizar_entra_as_poc_right-2" data-name="Btn - Deslizar entra as poc right" transform="translate(20) rotate(90)" fill="#ffff85">
    <path d="M 26.00000190734863 19.50000190734863 L 4.000001907348633 19.50000190734863 C 3.419511795043945 19.50000190734863 2.917961835861206 19.19002342224121 2.658361911773682 18.67082214355469 C 2.398751974105835 18.15161323547363 2.451701879501343 17.56439208984375 2.800001859664917 17.10000228881836 L 13.8000020980835 2.433332920074463 C 14.08598232269287 2.052022933959961 14.523362159729 1.833332777023315 15.00000190734863 1.833332777023315 C 15.47664165496826 1.833332777023315 15.91402149200439 2.052022933959961 16.20000267028809 2.433332920074463 L 27.20000267028809 17.10000228881836 C 27.54830169677734 17.56439208984375 27.60125160217285 18.15161323547363 27.34164237976074 18.67082214355469 C 27.0820426940918 19.19002342224121 26.58049201965332 19.50000190734863 26.00000190734863 19.50000190734863 Z" stroke="none"/>
    <path d="M 15.00000190734863 2.333332061767578 C 14.68224143981934 2.333332061767578 14.39065170288086 2.479122161865234 14.20000171661377 2.733333587646484 L 3.200002670288086 17.40000343322754 C 2.967802047729492 17.70959281921387 2.932502746582031 18.10107231140137 3.105571746826172 18.44721221923828 C 3.278642654418945 18.7933521270752 3.613012313842773 19.00000381469727 4.000001907348633 19.00000381469727 L 26.00000190734863 19.00000381469727 C 26.38699150085449 19.00000381469727 26.72136116027832 18.7933521270752 26.89443206787109 18.44721221923828 C 27.06750106811523 18.10107231140137 27.03220176696777 17.70959281921387 26.80000114440918 17.40000343322754 L 15.8000020980835 2.733333587646484 C 15.60935211181641 2.479122161865234 15.31776237487793 2.333332061767578 15.00000190734863 2.333332061767578 M 15.00000190734863 1.333330154418945 C 15.60000228881836 1.333330154418945 16.20000076293945 1.599998474121094 16.60000228881836 2.133333206176758 L 27.60000228881836 16.80000305175781 C 28.5888614654541 18.11847305297852 27.64809226989746 20.00000381469727 26.00000190734863 20.00000381469727 L 4.000001907348633 20.00000381469727 C 2.351911544799805 20.00000381469727 1.411142349243164 18.11847305297852 2.400001525878906 16.80000305175781 L 13.40000152587891 2.133333206176758 C 13.80000114440918 1.599998474121094 14.40000152587891 1.333330154418945 15.00000190734863 1.333330154418945 Z" stroke="none" fill="#ff7ea3"/>
  </g>
</svg>
