<svg xmlns="http://www.w3.org/2000/svg" xmlns:xlink="http://www.w3.org/1999/xlink" width="50" height="50" viewBox="0 0 50 50">
  <defs>
    <clipPath id="clip-path">
      <rect width="30" height="25" fill="none"/>
    </clipPath>
  </defs>
  <g id="Grupo_10" data-name="Grupo 10" transform="translate(-308 -31)">
    <g id="Elipse_10" data-name="Elipse 10" transform="translate(308 31)" fill="none" stroke="#fff" stroke-width="1">
      <circle cx="25" cy="25" r="25" stroke="none"/>
      <circle cx="25" cy="25" r="24.5" fill="none"/>
    </g>
    <g id="Componente_13_1" data-name="Componente 13 – 1" transform="translate(308 31)">
      <g id="Caminho_159" data-name="Caminho 159" fill="none">
        <path d="M25,0A25,25,0,1,1,0,25,25,25,0,0,1,25,0Z" stroke="none"/>
        <path d="M 25 1 C 21.75958061218262 1 18.61661911010742 1.634418487548828 15.65842056274414 2.885631561279297 C 12.80064010620117 4.094371795654297 10.23387908935547 5.825000762939453 8.029441833496094 8.029441833496094 C 5.825000762939453 10.23387908935547 4.094371795654297 12.80064010620117 2.885631561279297 15.65842056274414 C 1.634418487548828 18.61661911010742 1 21.75958061218262 1 25 C 1 28.24041938781738 1.634418487548828 31.38338088989258 2.885631561279297 34.34157943725586 C 4.094371795654297 37.19935989379883 5.825000762939453 39.76612091064453 8.029441833496094 41.97055816650391 C 10.23387908935547 44.17499923706055 12.80064010620117 45.90563201904297 15.65842056274414 47.1143684387207 C 18.61661911010742 48.36558151245117 21.75958061218262 49 25 49 C 28.24041938781738 49 31.38338088989258 48.36558151245117 34.34157943725586 47.1143684387207 C 37.19935989379883 45.90563201904297 39.76612091064453 44.17499923706055 41.97055816650391 41.97055816650391 C 44.17499923706055 39.76612091064453 45.90563201904297 37.19935989379883 47.1143684387207 34.34157943725586 C 48.36558151245117 31.38338088989258 49 28.24041938781738 49 25 C 49 21.75958061218262 48.36558151245117 18.61661911010742 47.1143684387207 15.65842056274414 C 45.90563201904297 12.80064010620117 44.17499923706055 10.23387908935547 41.97055816650391 8.029441833496094 C 39.76612091064453 5.825000762939453 37.19935989379883 4.094371795654297 34.34157943725586 2.885631561279297 C 31.38338088989258 1.634418487548828 28.24041938781738 1 25 1 M 25 0 C 38.80712127685547 0 50 11.19287872314453 50 25 C 50 38.80712127685547 38.80712127685547 50 25 50 C 11.19287872314453 50 0 38.80712127685547 0 25 C 0 11.19287872314453 11.19287872314453 0 25 0 Z" stroke="none" fill="#fff"/>
      </g>
      <g id="Repetição_de_grade_2" data-name="Repetição de grade 2" transform="translate(10 13)" clip-path="url(#clip-path)">
        <g transform="translate(-318.5 -46.5)">
          <path id="Caminho_158" data-name="Caminho 158" d="M0,0H28" transform="translate(319.5 48)" fill="none" stroke="#fff" stroke-linecap="round" stroke-width="2"/>
        </g>
        <g transform="translate(-318.5 -37.5)">
          <path id="Caminho_158-2" data-name="Caminho 158" d="M0,0H28" transform="translate(319.5 48)" fill="none" stroke="#fff" stroke-linecap="round" stroke-width="2"/>
        </g>
        <g transform="translate(-318.5 -28.5)">
          <path id="Caminho_158-3" data-name="Caminho 158" d="M0,0H28" transform="translate(319.5 48)" fill="none" stroke="#fff" stroke-linecap="round" stroke-width="2"/>
        </g>
      </g>
    </g>
  </g>
</svg>
